<svg width="1110" height="213" viewBox="0 0 1110 213" fill="none" xmlns="http://www.w3.org/2000/svg">
<path d="M93.8368 111.815L21.3584 95.3797C19.868 95.0436 18.5366 94.2103 17.5831 93.0169C16.6296 91.8236 16.111 90.3414 16.1126 88.8141V7.72861C16.114 6.69887 16.3515 5.68316 16.8069 4.7595C17.2622 3.83583 17.9233 3.02878 18.7393 2.40033C19.5554 1.77189 20.5046 1.33877 21.5142 1.13424C22.5238 0.929716 23.5669 0.959227 24.5633 1.2205L96.9843 20.3569C98.4212 20.7371 99.6921 21.5814 100.599 22.7584C101.506 23.9354 101.999 25.3792 102 26.865V105.25C101.997 106.253 101.77 107.244 101.334 108.149C100.899 109.053 100.267 109.849 99.485 110.479C98.7026 111.108 97.7894 111.555 96.8122 111.786C95.835 112.017 94.8184 112.027 93.8368 111.815V111.815Z" stroke="#F7A4AD" stroke-width="1.12" stroke-linecap="round" stroke-linejoin="round"/>
<path d="M85.0766 121.111C84.1873 121.814 83.1644 122.329 82.0701 122.626C80.9757 122.922 79.8325 122.993 78.7098 122.835L6.24583 106.399C4.75549 106.063 3.42403 105.23 2.47058 104.037C1.51712 102.843 0.998485 101.361 1.00004 99.8338L1.00004 18.7483C0.996949 17.8015 1.19526 16.8648 1.5818 16.0004C1.96833 15.136 2.53425 14.3636 3.24207 13.7344" stroke="#F7A4AD" stroke-width="1.12" stroke-linecap="round" stroke-linejoin="round"/>
<path d="M98.1787 111.342L84.4678 121.571" stroke="#F7A4AD" stroke-width="1.12" stroke-linecap="round" stroke-linejoin="round"/>
<path d="M3.24683 13.7335L19.2429 2.03906" stroke="#F7A4AD" stroke-width="1.12" stroke-linecap="round" stroke-linejoin="round"/>
<path d="M79.0703 42.9149C74.615 36.4356 67.1558 35.0276 62.3843 39.7399L59.2368 42.8575L56.2906 38.5475C51.8496 32.0681 44.3905 30.6314 39.5903 35.3293C34.79 40.0272 34.5169 49.0783 38.9579 55.5576L49.9094 71.5765C49.9042 71.6146 49.9042 71.6533 49.9094 71.6914C51.4438 74.0155 53.635 75.8308 56.2043 76.9065C57.9437 77.6399 59.8627 77.8362 61.7146 77.47C63.5664 77.1039 65.2662 76.1921 66.5953 74.8521L78.4666 63.1432C83.2525 58.4453 83.5113 49.38 79.0703 42.9149Z" fill="#FF4252"/>
<path d="M414.703 118.516C415.512 94.978 397.087 75.2483 373.549 74.4481C350.011 73.6479 330.274 92.0802 329.465 115.618C328.656 139.155 347.081 158.885 370.619 159.685C394.157 160.485 413.894 142.053 414.703 118.516Z" fill="url(#paint0_linear_382_371)"/>
<path d="M375.211 99.1598C374.045 99.1214 372.884 99.3157 371.794 99.7315C370.704 100.147 369.708 100.776 368.864 101.581C368.02 102.386 367.344 103.351 366.878 104.42C366.411 105.489 366.162 106.641 366.145 107.807L366.113 110.987L362.916 110.972C360.57 110.91 358.295 111.784 356.592 113.4C354.89 115.015 353.898 117.241 353.836 119.587C353.774 121.933 354.646 124.208 356.261 125.91C357.876 127.612 360.102 128.603 362.448 128.664L374.512 128.981C376.858 129.029 379.129 128.147 380.828 126.527C382.526 124.907 383.515 122.68 383.578 120.334L383.78 108.142C383.808 106.99 383.609 105.843 383.193 104.767C382.778 103.691 382.154 102.708 381.358 101.874C380.562 101.04 379.61 100.371 378.555 99.9051C377.5 99.4393 376.364 99.1861 375.211 99.1598Z" fill="white"/>
<path d="M846.003 111.402C834.645 129.579 817.057 144.215 796.556 149.989C776.056 155.763 752.599 151.893 736.524 138.026C732.586 134.813 729.722 130.464 728.313 125.557C724.888 112.235 735.024 100.938 744.156 97.7361C754.999 93.981 767.68 97.6489 773.276 107.553C778.872 117.456 777.711 130.141 772.904 140.603C768.327 150.701 760.736 159.13 751.193 164.71C741.649 170.29 730.631 172.742 719.679 171.723C708.726 170.705 698.388 166.266 690.109 159.029C681.83 151.792 676.025 142.118 673.505 131.36" stroke="#73C4E0" stroke-width="1.01" stroke-miterlimit="10"/>
<path d="M946 110.782L1108.77 116.066L946 1V110.782Z" stroke="#F7A4AD" stroke-width="1.12" stroke-linecap="round" stroke-linejoin="round"/>
<path d="M997.816 114.226L1029.62 170.296L1037.83 113.745L947.972 4.79297" stroke="#F7A4AD" stroke-width="1.12" stroke-linecap="round" stroke-linejoin="round"/>
<defs>
<linearGradient id="paint0_linear_382_371" x1="329.465" y1="115.618" x2="414.702" y2="118.548" gradientUnits="userSpaceOnUse">
<stop stop-color="#5EC3FC"/>
<stop offset="1" stop-color="#0066FF"/>
</linearGradient>
</defs>
</svg>
